# xmcd
#
# Track frame offsets:
#	150
#	15950
#	32694
#	48562
#	66424
#	81647
#	97360
#	114762
#	130799
#	144773
#	158317
#	175565
#	191466
#	208377
#
# Disc length: 2980 seconds
#
# Revision: 1
# Processed by: cddbd v1.5.1PL2 Copyright (c) Steve Scherf et al.
# Submitted via: audiograbber 1.83.01
#
DISCID=b60ba20e
DTITLE=KARAOKE - STAR DISC VOLUME 146 COUNTY HITS - TODAY
DYEAR=2006
DGENRE=
TTITLE0=GEORGE STRAIT - GIVE IT AWAY
TTITLE1=DIERKS BENTLEY - EVERY MILE A MEMORY
TTITLE2=MONTGOMERY GENTRY - SOME PEOPLE CHANGE
TTITLE3=LONESTAR - MOUNTAINS
TTITLE4=JASON ALDEAN - AMARILLO SKY
TTITLE5=JO DEE MESSINA - TOO LATE TO WORRY
TTITLE6=KEITH ANDERSON - THREE CHORD COUNTRY and AMERICAN ROCK N ROLL
TTITLE7=HEARTLAND - I LOVED HER FIRST
TTITLE8=JULIE ROBERTS - GIRL NEXT DOOR
TTITLE9=CAROLINA RAIN - GET OUTTA MY WAY
TTITLE10=BLUE COUNTRY - FIRECRACKERS and FERRIS WHEELS
TTITLE11=MARTINA MCBRIDE - TIL I CAN MAKE IT ON MY OWN
TTITLE12=BOMSHEL - AIN'T MY DAY TO CARE
TTITLE13=CHRIS YOUNG - DRINKING ME LONELY
EXTD=
EXTT0=
EXTT1=
EXTT2=
EXTT3=
EXTT4=
EXTT5=
EXTT6=
EXTT7=
EXTT8=
EXTT9=
EXTT10=
EXTT11=
EXTT12=
EXTT13=
PLAYORDER=
